<svg width="40" height="40" viewBox="0 0 40 40" fill="none" xmlns="http://www.w3.org/2000/svg">
<path fill-rule="evenodd" clip-rule="evenodd" d="M35.8647 9.23717C32.1914 5.30697 29.0931 2.75531 23.6243 1.6494C13.9436 -0.307067 4.38705 5.7716 2.37947 15.5885C0.522787 24.6662 6.34115 34.7 15.6475 36.7832C24.8201 38.8376 34.1704 33.7112 36.5313 24.3782C37.0929 22.1587 37.4673 19.8297 37.3088 17.5449C35.6889 19.9545 33.6011 23.5583 32.4722 25.2575C31.5114 26.7071 28.7531 31.6376 26.4476 30.6124C24.0388 29.5429 23.2671 22.8959 21.9052 20.5651C19.7658 23.806 15.0974 43.8199 10.9064 17.1821C10.6524 15.5712 10.448 14.0275 10.3067 12.4474C9.43753 14.7245 8.74987 16.5926 8.42132 19.4054L8.23604 18.4147C8.13862 17.088 9.80046 10.2682 10.3754 9.90725C11.2083 9.38309 11.1643 11.1111 11.1853 11.2973C11.4833 13.8989 13.957 27.6287 15.8691 29.0764C17.4144 27.8553 19.0609 20.5555 20.7648 18.8582C24.0675 15.5693 25.5364 26.6341 27.1906 28.4178C28.5411 27.2793 31.4369 22.4371 32.2602 21.0796C33.0395 19.7932 36.3231 13.5418 37.7959 13.2922C41.3125 12.6951 39.6793 23.0995 39.2208 25.0406C37.5284 32.229 32.1112 37.6145 24.9939 39.3732C12.9943 42.3396 2.07002 34.4581 0.228622 22.4582C-1.22501 12.9907 4.3775 3.6481 13.4985 0.825723C21.5575 -1.66834 31.8934 1.58796 35.8628 9.23525L35.8647 9.23717Z" fill="#6A22EA" style="mix-blend-mode:plus-lighter"/>
</svg>
