<svg aria-hidden="true" style="position: absolute; width: 0; height: 0; overflow: hidden;" xmlns="http://www.w3.org/2000/svg">
    <symbol id="icon-whatsapp" viewBox="0 0 32 32">
        <path d="M16.051 4.387c-6.587 0-11.947 5.163-11.951 11.508 0 0.001 0 0.003 0 0.004 0 2.124 0.594 4.11 1.624 5.8l-0.028-0.049-1.696 5.963 6.335-1.6c1.654 0.883 3.617 1.401 5.702 1.401 0.003 0 0.006 0 0.009 0h0.005c6.587 0 11.947-5.164 11.949-11.509 0.001-3.073-1.24-5.967-3.497-8.141-2.256-2.175-5.256-3.375-8.453-3.376zM16.051 25.469h-0.004c-0.004 0-0.009 0-0.014 0-1.854 0-3.593-0.495-5.091-1.36l0.049 0.026-0.364-0.207-3.757 0.949 1.003-3.531-0.236-0.361c-0.952-1.433-1.519-3.194-1.519-5.086 0-0.002 0-0.004 0-0.006v0c0.003-5.275 4.459-9.564 9.937-9.564 2.652 0 5.147 0.997 7.021 2.805 1.876 1.808 2.908 4.211 2.907 6.768-0.003 5.275-4.457 9.565-9.933 9.565zM21.499 18.304c-0.299-0.143-1.767-0.84-2.040-0.936-0.275-0.095-0.473-0.144-0.672 0.144s-0.772 0.936-0.945 1.127c-0.173 0.192-0.348 0.216-0.648 0.072-0.299-0.144-1.26-0.447-2.4-1.427-0.888-0.763-1.488-1.704-1.661-1.993-0.173-0.287-0.019-0.443 0.131-0.587 0.133-0.127 0.299-0.333 0.448-0.503 0.147-0.168 0.197-0.288 0.299-0.48 0.099-0.191 0.049-0.36-0.027-0.503-0.075-0.145-0.671-1.56-0.92-2.135-0.243-0.56-0.488-0.485-0.672-0.495-0.159-0.007-0.346-0.011-0.534-0.011-0.014 0-0.027 0-0.041 0h0.002c-0.315 0.008-0.597 0.144-0.795 0.359l-0.001 0.001c-0.273 0.288-1.044 0.983-1.044 2.399s1.069 2.783 1.219 2.975c0.149 0.192 2.107 3.097 5.101 4.344 0.712 0.293 1.268 0.472 1.703 0.605 0.715 0.219 1.367 0.187 1.88 0.113 0.573-0.083 1.767-0.695 2.015-1.367 0.249-0.671 0.249-1.247 0.175-1.367-0.072-0.12-0.272-0.192-0.571-0.337z"></path>
    </symbol>
    <symbol id="icon-arrow" viewBox="0 0 32 32">
        <path d="M7.417 16c0-0.746 0.588-1.352 1.313-1.352h11.623l-3.778-3.531c-0.249-0.25-0.403-0.594-0.403-0.975 0-0.362 0.139-0.691 0.368-0.938l-0.001 0.001c0.236-0.256 0.573-0.415 0.947-0.415 0.356 0 0.678 0.144 0.911 0.378l0 0 6.127 5.857c0.257 0.255 0.403 0.607 0.403 0.974s-0.146 0.719-0.403 0.974l-6.127 5.858c-0.233 0.233-0.555 0.377-0.91 0.377-0.374 0-0.711-0.16-0.946-0.415l-0.001-0.001c-0.227-0.245-0.367-0.575-0.367-0.937 0-0.381 0.154-0.725 0.403-0.975l-0 0 3.778-3.531h-11.623c-0.725 0-1.313-0.605-1.313-1.352z"></path>
    </symbol>
</svg>