<svg aria-hidden="true" style="position: absolute; width: 0; height: 0; overflow: hidden;" xmlns="http://www.w3.org/2000/svg">
    <symbol id="icon-logo" viewBox="0 0 32 32">
        <path d="M28.692 7.39c-2.939-3.144-5.418-5.186-9.792-6.070-7.746-1.565-15.391 3.298-16.998 11.153-1.484 7.261 3.17 15.288 10.616 16.954 7.338 1.644 14.818-2.458 16.706-9.924 0.45-1.776 0.749-3.638 0.622-5.466-1.296 1.928-2.966 4.81-3.87 6.17-0.768 1.16-2.975 5.104-4.819 4.284-1.928-0.856-2.544-6.173-3.634-8.038-1.712 2.593-5.446 18.604-8.799-2.706-0.168-0.956-0.338-2.253-0.463-3.563l-0.017-0.225c-0.694 1.822-1.245 3.317-1.508 5.566l-0.148-0.792c-0.078-1.062 1.251-6.518 1.712-6.806 0.666-0.419 0.63 0.963 0.648 1.112 0.238 2.082 2.217 13.066 3.746 14.224 1.236-0.978 2.554-6.818 3.917-8.175 2.642-2.631 3.817 6.221 5.141 7.648 1.080-0.911 3.397-4.784 4.056-5.87 0.622-1.030 3.25-6.030 4.428-6.23 2.814-0.478 1.506 7.846 1.14 9.399-1.354 5.75-5.688 10.059-11.382 11.466-9.6 2.374-18.339-3.932-19.812-13.532-1.163-7.574 3.319-15.048 10.616-17.306 6.447-1.995 14.715 0.61 17.891 6.728z"></path>
    </symbol>

    <symbol id="icon-menu" viewBox="0 0 32 32">
        <path d="M3.2 5.12c-0.005-0-0.012-0-0.018-0-0.707 0-1.28 0.573-1.28 1.28s0.573 1.28 1.28 1.28c0.006 0 0.013-0 0.019-0h25.599c0.005 0 0.012 0 0.018 0 0.707 0 1.28-0.573 1.28-1.28s-0.573-1.28-1.28-1.28c-0.006 0-0.013 0-0.019 0h-25.599zM3.2 14.72c-0.005-0-0.012-0-0.018-0-0.707 0-1.28 0.573-1.28 1.28s0.573 1.28 1.28 1.28c0.006 0 0.013-0 0.019-0h25.599c0.005 0 0.012 0 0.018 0 0.707 0 1.28-0.573 1.28-1.28s-0.573-1.28-1.28-1.28c-0.006 0-0.013 0-0.019 0h-25.599zM3.2 24.32c-0.005-0-0.012-0-0.018-0-0.707 0-1.28 0.573-1.28 1.28s0.573 1.28 1.28 1.28c0.006 0 0.013-0 0.019-0h25.599c0.005 0 0.012 0 0.018 0 0.707 0 1.28-0.573 1.28-1.28s-0.573-1.28-1.28-1.28c-0.006 0-0.013 0-0.019 0h-25.599z"></path>
    </symbol>
    <symbol id="icon-close" viewBox="0 0 24 24">
        <path stroke-linejoin="miter" stroke-linecap="round" stroke-miterlimit="4" stroke-width="2" d="M9 6l6 6 6-6M9 18l6-6 6 6"></path>
    </symbol>

    <symbol id="icon-whatsapp" viewBox="0 0 32 32">
        <path d="M16.051 4.387c-6.587 0-11.947 5.163-11.951 11.508 0 0.001 0 0.003 0 0.004 0 2.124 0.594 4.11 1.624 5.8l-0.028-0.049-1.696 5.963 6.335-1.6c1.654 0.883 3.617 1.401 5.702 1.401 0.003 0 0.006 0 0.009 0h0.005c6.587 0 11.947-5.164 11.949-11.509 0.001-3.073-1.24-5.967-3.497-8.141-2.256-2.175-5.256-3.375-8.453-3.376zM16.051 25.469h-0.004c-0.004 0-0.009 0-0.014 0-1.854 0-3.593-0.495-5.091-1.36l0.049 0.026-0.364-0.207-3.757 0.949 1.003-3.531-0.236-0.361c-0.952-1.433-1.519-3.194-1.519-5.086 0-0.002 0-0.004 0-0.006v0c0.003-5.275 4.459-9.564 9.937-9.564 2.652 0 5.147 0.997 7.021 2.805 1.876 1.808 2.908 4.211 2.907 6.768-0.003 5.275-4.457 9.565-9.933 9.565zM21.499 18.304c-0.299-0.143-1.767-0.84-2.040-0.936-0.275-0.095-0.473-0.144-0.672 0.144s-0.772 0.936-0.945 1.127c-0.173 0.192-0.348 0.216-0.648 0.072-0.299-0.144-1.26-0.447-2.4-1.427-0.888-0.763-1.488-1.704-1.661-1.993-0.173-0.287-0.019-0.443 0.131-0.587 0.133-0.127 0.299-0.333 0.448-0.503 0.147-0.168 0.197-0.288 0.299-0.48 0.099-0.191 0.049-0.36-0.027-0.503-0.075-0.145-0.671-1.56-0.92-2.135-0.243-0.56-0.488-0.485-0.672-0.495-0.159-0.007-0.346-0.011-0.534-0.011-0.014 0-0.027 0-0.041 0h0.002c-0.315 0.008-0.597 0.144-0.795 0.359l-0.001 0.001c-0.273 0.288-1.044 0.983-1.044 2.399s1.069 2.783 1.219 2.975c0.149 0.192 2.107 3.097 5.101 4.344 0.712 0.293 1.268 0.472 1.703 0.605 0.715 0.219 1.367 0.187 1.88 0.113 0.573-0.083 1.767-0.695 2.015-1.367 0.249-0.671 0.249-1.247 0.175-1.367-0.072-0.12-0.272-0.192-0.571-0.337z"></path>
    </symbol>
    <symbol id="icon-arrow" viewBox="0 0 32 32">
        <path d="M7.417 16c0-0.746 0.588-1.352 1.313-1.352h11.623l-3.778-3.531c-0.249-0.25-0.403-0.594-0.403-0.975 0-0.362 0.139-0.691 0.368-0.938l-0.001 0.001c0.236-0.256 0.573-0.415 0.947-0.415 0.356 0 0.678 0.144 0.911 0.378l0 0 6.127 5.857c0.257 0.255 0.403 0.607 0.403 0.974s-0.146 0.719-0.403 0.974l-6.127 5.858c-0.233 0.233-0.555 0.377-0.91 0.377-0.374 0-0.711-0.16-0.946-0.415l-0.001-0.001c-0.227-0.245-0.367-0.575-0.367-0.937 0-0.381 0.154-0.725 0.403-0.975l-0 0 3.778-3.531h-11.623c-0.725 0-1.313-0.605-1.313-1.352z"></path>
    </symbol>

    <symbol id="icon-arrow-carousel" viewBox="0 0 32 32">
        <path d="M10.828 14h17.172v4h-17.172l6.587 6.587-2.829 2.827-11.412-11.413 11.413-11.413 2.829 2.827z"></path>
    </symbol>

    <symbol id="icon-instagram" viewBox="0 0 32 32">
        <path d="M26.5 7.809c0 1.243-1.007 2.25-2.25 2.25s-2.25-1.007-2.25-2.25c0-1.243 1.007-2.25 2.25-2.25s2.25 1.007 2.25 2.25z"></path>
        <path d="M16 23.559c-4.142 0-7.5-3.358-7.5-7.5s3.358-7.5 7.5-7.5c4.142 0 7.5 3.358 7.5 7.5s-3.358 7.5-7.5 7.5zM16 20.559c2.485 0 4.5-2.015 4.5-4.5s-2.015-4.5-4.5-4.5c-2.485 0-4.5 2.015-4.5 4.5s2.015 4.5 4.5 4.5z"></path>
        <path d="M1 15.459v1.2c0 5.040 0 7.561 0.981 9.486 0.863 1.693 2.24 3.070 3.933 3.933 1.925 0.981 4.445 0.981 9.486 0.981h1.2c5.040 0 7.561 0 9.486-0.981 1.693-0.863 3.070-2.24 3.933-3.933 0.981-1.925 0.981-4.446 0.981-9.486v-1.2c0-5.040 0-7.561-0.981-9.486-0.863-1.693-2.24-3.070-3.933-3.933-1.925-0.981-4.446-0.981-9.486-0.981h-1.2c-5.040 0-7.561 0-9.486 0.981-1.693 0.863-3.070 2.24-3.933 3.933-0.981 1.925-0.981 4.445-0.981 9.486zM15.4 4.059h1.2c2.57 0 4.317 0.002 5.667 0.113 1.315 0.107 1.988 0.302 2.457 0.541 1.129 0.575 2.047 1.493 2.622 2.622 0.239 0.469 0.434 1.142 0.541 2.457 0.11 1.35 0.113 3.097 0.113 5.667v1.2c0 2.57-0.002 4.317-0.113 5.667-0.108 1.315-0.302 1.988-0.541 2.457-0.575 1.129-1.493 2.047-2.622 2.622-0.469 0.239-1.142 0.434-2.457 0.541-1.35 0.11-3.097 0.113-5.667 0.113h-1.2c-2.57 0-4.317-0.002-5.667-0.113-1.315-0.108-1.988-0.302-2.457-0.541-1.129-0.575-2.047-1.493-2.622-2.622-0.239-0.469-0.434-1.142-0.541-2.457-0.11-1.35-0.113-3.097-0.113-5.667v-1.2c0-2.57 0.002-4.317 0.113-5.667 0.107-1.315 0.302-1.988 0.541-2.457 0.575-1.129 1.493-2.047 2.622-2.622 0.469-0.239 1.142-0.434 2.457-0.541 1.35-0.11 3.097-0.113 5.667-0.113z"></path>
    </symbol>
    <symbol id="icon-facebook" viewBox="0 0 32 32">
        <path d="M30.476 15.375c0-8.468-6.822-15.33-15.238-15.33s-15.238 6.86-15.238 15.33c0 7.654 5.571 13.996 12.856 15.147v-10.714h-3.866v-4.434h3.867v-3.377c0-3.842 2.275-5.964 5.757-5.964 1.666 0 3.41 0.299 3.41 0.299v3.773h-1.923c-1.893 0-2.481 1.182-2.481 2.395v2.875h4.226l-0.675 4.431h-3.55v10.714c7.284-1.149 12.855-7.491 12.855-15.145z"></path>
    </symbol>
    <symbol id="icon-tiktok" viewBox="0 0 32 32">
        <path d="M23.187 7.729c-1.686-1.109-2.784-2.992-2.788-5.131v-0.001h-4.402l-0.006 17.638c-0.078 1.981-1.701 3.557-3.692 3.561h-0c-2.042-0.001-3.698-1.657-3.699-3.699v-0c0.003-2.042 1.657-3.696 3.699-3.699h0c0.381 0 0.746 0.061 1.092 0.17v-4.493c-0.327-0.049-0.705-0.077-1.090-0.079h-0.002c-4.472 0.005-8.095 3.628-8.101 8.099v0.001c0.001 2.733 1.357 5.15 3.433 6.615l0.026 0.017c1.291 0.918 2.899 1.468 4.636 1.468 0.002 0 0.005 0 0.007 0h-0c4.472-0.005 8.095-3.628 8.101-8.099v-8.944c1.725 1.239 3.84 1.969 6.124 1.969v-4.401c-1.229 0-2.374-0.366-3.336-0.992z"></path>
    </symbol>
</svg>