<svg width="40" height="41" viewBox="0 0 40 41" fill="none" xmlns="http://www.w3.org/2000/svg">
<path fill-rule="evenodd" clip-rule="evenodd" d="M35.8647 9.73717C32.1914 5.80697 29.0931 3.25531 23.6243 2.1494C13.9436 0.192933 4.38705 6.2716 2.37947 16.0885C0.522787 25.1662 6.34115 35.2 15.6475 37.2832C24.8201 39.3376 34.1704 34.2112 36.5313 24.8782C37.0929 22.6587 37.4673 20.3297 37.3088 18.0449C35.6889 20.4545 33.6011 24.0583 32.4722 25.7575C31.5114 27.2071 28.7531 32.1376 26.4476 31.1124C24.0388 30.0429 23.2671 23.3959 21.9052 21.0651C19.7658 24.306 15.0974 44.3199 10.9064 17.6821C10.6524 16.0712 10.448 14.5275 10.3067 12.9474C9.43753 15.2245 8.74987 17.0926 8.42132 19.9054L8.23604 18.9147C8.13862 17.588 9.80046 10.7682 10.3754 10.4072C11.2083 9.88309 11.1643 11.6111 11.1853 11.7973C11.4833 14.3989 13.957 28.1287 15.8691 29.5764C17.4144 28.3553 19.0609 21.0555 20.7648 19.3582C24.0675 16.0693 25.5364 27.1341 27.1906 28.9178C28.5411 27.7793 31.4369 22.9371 32.2602 21.5796C33.0395 20.2932 36.3231 14.0418 37.7959 13.7922C41.3125 13.1951 39.6793 23.5995 39.2208 25.5406C37.5284 32.729 32.1112 38.1145 24.9939 39.8732C12.9943 42.8396 2.07002 34.9581 0.228622 22.9582C-1.22501 13.4907 4.3775 4.1481 13.4985 1.32572C21.5575 -1.16834 31.8934 2.08796 35.8628 9.73525L35.8647 9.73717Z" fill="#6A22EA" style="mix-blend-mode:plus-lighter"/>
</svg>
