<svg width="729" height="223" viewBox="0 0 729 223" fill="none" xmlns="http://www.w3.org/2000/svg">
<path d="M131.5 20.3125C132.833 26.0625 133.354 31.875 133.062 37.75C132.812 45.375 132.125 52.9375 131 60.4375C129.875 67.9375 128.5 75.4167 126.875 82.875C124.458 93.8333 121.271 105.854 117.312 118.938C113.354 132.021 108.562 144.667 102.938 156.875C97.3125 169.083 90.7708 179.354 83.3125 187.688C76.9375 193.646 71.5417 196.271 67.125 195.562C62.7083 194.896 59.0208 192.146 56.0625 187.312C53.1458 182.521 50.7292 176.896 48.8125 170.438C45.3542 158.729 42.625 146.854 40.625 134.812C38.625 122.812 36.875 110.75 35.375 98.625C34.7917 94.1667 34.1875 89.7083 33.5625 85.25C33.1458 85.9583 32.75 86.6667 32.375 87.375C26.125 102.583 21.0833 118.25 17.25 134.375C13.4583 150.5 10.25 166.667 7.625 182.875C7 186.958 6.47917 191.042 6.0625 195.125C5.6875 199.25 5.60417 203.354 5.8125 207.438C5.77083 208.854 5.25 209.771 4.25 210.188C3.25 210.604 2.29167 210.542 1.375 210C0.458333 209.458 0.0625 208.479 0.1875 207.062C1.39583 200.938 2.47917 194.792 3.4375 188.625C3.77083 186.542 4.10417 184.458 4.4375 182.375C6.77083 168.75 9.52083 155.188 12.6875 141.688C13.3542 139.104 14 136.479 14.625 133.812C16.7083 124.979 19 116.188 21.5 107.438C24.0417 98.6875 27.1875 90.1667 30.9375 81.875C30.9792 81.8333 31 81.7917 31 81.75C31.375 80.9583 31.8542 80.1875 32.4375 79.4375C33.0208 78.6875 33.7917 78.1667 34.75 77.875C36.6667 77.4167 37.9167 78.1458 38.5 80.0625C39.9167 88.4375 41.25 96.9583 42.5 105.625C43.4167 112.125 44.375 118.521 45.375 124.812C45.7083 126.604 46.0208 128.396 46.3125 130.188C47.6458 138.479 49.2083 146.729 51 154.938C52.7917 163.188 55.25 171.188 58.375 178.938C58.4583 179.104 58.5417 179.25 58.625 179.375C59.5417 181.458 60.6458 183.5 61.9375 185.5C63.2708 187.542 64.9792 188.938 67.0625 189.688C70.5625 189.854 73.9167 188.542 77.125 185.75C80.375 182.958 83.2917 179.688 85.875 175.938C88.5 172.188 90.625 168.917 92.25 166.125C102.208 147.792 110.583 127 117.375 103.75C124.167 80.5 128.188 58.4583 129.438 37.625C129.521 34.4583 129.438 31.2917 129.188 28.125C128.979 24.9167 128.333 21.8125 127.25 18.8125C125.417 14.3542 123 11.6458 120 10.6875C117.042 9.72917 113.458 10.3958 109.25 12.6875C106.167 14.5208 103.521 16.8542 101.312 19.6875C99.1042 22.5208 97.0625 25.5833 95.1875 28.875C94.4792 29.875 93.625 30.3333 92.625 30.25C91.6667 30.1667 90.8958 29.7292 90.3125 28.9375C89.7708 28.1042 89.7708 27.125 90.3125 26C92.6875 22.875 95.3125 19.7708 98.1875 16.6875C101.062 13.6042 104.25 11.1042 107.75 9.1875C111.292 7.27083 115.208 6.52083 119.5 6.9375C122.792 7.5625 125.396 9.20833 127.312 11.875C129.271 14.5 130.667 17.3125 131.5 20.3125ZM35.3125 83.1875C35.4792 83.1875 35.625 83.1667 35.75 83.125C35.875 83.0833 35.9583 83.0208 36 82.9375C36 82.8542 35.9583 82.8333 35.875 82.875C35.8333 82.875 35.75 82.8958 35.625 82.9375C35.5417 83.0208 35.4375 83.1042 35.3125 83.1875ZM181.312 111.375C181.438 111.875 181.146 112.271 180.438 112.562C179.771 112.854 179.042 113.083 178.25 113.25C177.625 113.417 177.167 113.562 176.875 113.688C172.708 114.771 168.479 115.333 164.188 115.375C163.979 115.375 163.771 115.375 163.562 115.375C161.938 115.333 160.021 115.229 157.812 115.062C155.604 114.896 153.5 114.5 151.5 113.875C151.583 117.042 151.021 120.125 149.812 123.125C148.646 126.125 147 128.396 144.875 129.938C142.375 131.729 140.083 132.229 138 131.438C135.917 130.646 134.583 128.75 134 125.75C133.375 120.25 134.729 115.229 138.062 110.688C139.771 108.479 141.875 106.75 144.375 105.5C145.542 105.042 146.479 105.208 147.188 106C147.562 105.625 148.042 105.583 148.625 105.875C150.042 107.5 150.938 109.521 151.312 111.938C153.396 112.771 155.729 113.312 158.312 113.562C160.896 113.771 162.854 113.875 164.188 113.875C169.812 113.917 175.229 112.958 180.438 111C180.604 110.917 180.771 110.917 180.938 111C181.104 111.083 181.229 111.208 181.312 111.375ZM148.75 110.25C148.625 109.625 148.438 109.021 148.188 108.438C148.188 109.104 148.375 109.708 148.75 110.25ZM140.188 128.938C143.396 128.188 145.771 126.208 147.312 123C148.896 119.792 149.542 116.417 149.25 112.875C147.958 112.167 147.062 111.208 146.562 110C144.229 111.208 142.354 112.917 140.938 115.125C139.562 117.292 138.667 119.646 138.25 122.188C138.25 122.354 138.229 122.521 138.188 122.688C138.062 123.896 138.062 125.146 138.188 126.438C138.354 127.729 139.021 128.562 140.188 128.938ZM232.188 111.188C233.562 111.396 233.417 112 231.75 113C230.083 113.958 227.562 114.979 224.188 116.062C220.854 117.146 217.333 117.938 213.625 118.438C209.958 118.938 206.812 118.833 204.188 118.125C202.438 122.917 199.854 127.125 196.438 130.75C194.104 131.792 192.354 131.729 191.188 130.562C190.021 129.354 189.25 127.583 188.875 125.25C188.5 122.917 188.354 120.542 188.438 118.125C186.604 120.833 184.521 123.354 182.188 125.688C181.604 126.146 180.938 126.25 180.188 126C179.479 125.75 178.938 125.333 178.562 124.75C177.479 122.583 177.208 120.312 177.75 117.938C178.25 115.521 179 113.271 180 111.188C180.583 110.229 181.312 109.812 182.188 109.938C183.104 110.021 183.833 110.438 184.375 111.188C184.917 111.896 184.917 112.729 184.375 113.688C183.917 114.438 183.375 115.479 182.75 116.812C182.125 118.104 181.625 119.438 181.25 120.812C180.875 122.146 180.833 123.188 181.125 123.938C182.875 122.229 184.375 120.271 185.625 118.062C186.917 115.854 188.062 113.625 189.062 111.375C189.396 110.792 189.833 110.479 190.375 110.438C190.917 110.396 191.396 110.562 191.812 110.938C192.271 111.271 192.479 111.771 192.438 112.438C192.438 113.062 192.396 113.958 192.312 115.125C192.229 116.875 192.188 118.812 192.188 120.938C192.188 123.062 192.333 124.958 192.625 126.625C192.917 128.292 193.479 129.333 194.312 129.75C195.896 128.875 197.417 127.333 198.875 125.125C200.333 122.917 201.646 120.375 202.812 117.5C200.396 116.417 199.479 114.188 200.062 110.812C200.604 107.438 202 104.479 204.25 101.938C204.542 101.646 204.958 101.292 205.5 100.875C206.042 100.458 206.583 100.188 207.125 100.062C207.708 99.9375 208.167 100.167 208.5 100.75C208.5 103.125 208.208 105.417 207.625 107.625C207.583 107.708 207.562 107.771 207.562 107.812C206.729 110.729 205.812 113.646 204.812 116.562C207.271 117.396 210.396 117.542 214.188 117C217.979 116.417 221.583 115.542 225 114.375C228.417 113.208 230.812 112.146 232.188 111.188ZM201.688 112.5C201.729 114 202.312 115.125 203.438 115.875C205.271 110.75 206.312 106.312 206.562 102.562C205.021 103.646 203.854 105.125 203.062 107C202.271 108.833 201.812 110.667 201.688 112.5ZM283.562 111.125C284.604 111 284.958 111.229 284.625 111.812C284.333 112.354 283.604 113.104 282.438 114.062C281.271 115.021 279.979 116.021 278.562 117.062C277.188 118.062 275.938 118.938 274.812 119.688C273.688 120.396 273 120.812 272.75 120.938C269.625 122.896 266.417 124.729 263.125 126.438C259.833 128.104 256.375 129.417 252.75 130.375C249.792 131.25 247.75 130.75 246.625 128.875C245.5 127 245.167 124.75 245.625 122.125C246.083 118 247.521 114.25 249.938 110.875C250.646 110.083 251.417 109.812 252.25 110.062C253.125 110.271 253.771 110.771 254.188 111.562C254.604 112.312 254.5 113.125 253.875 114C252.5 115.958 251.354 118.146 250.438 120.562C249.521 122.938 249.229 125.312 249.562 127.688C250.438 128.521 251.646 128.792 253.188 128.5C254.729 128.208 256.188 127.771 257.562 127.188C258.229 126.938 258.812 126.75 259.312 126.625C263.771 124.792 268.062 122.604 272.188 120.062C276.354 117.521 280.146 114.542 283.562 111.125ZM253.875 104.938C252.333 104.729 251.521 104.042 251.438 102.875C251.396 101.708 251.812 100.688 252.688 99.8125C253.604 98.9375 254.688 98.875 255.938 99.625C256.688 100.167 257.021 100.854 256.938 101.688C256.854 102.479 256.521 103.208 255.938 103.875C255.354 104.542 254.667 104.896 253.875 104.938ZM336.375 111.188C336.583 110.938 336.812 110.854 337.062 110.938C337.312 110.979 337.5 111.104 337.625 111.312C337.75 111.521 337.729 111.75 337.562 112C337.146 112.5 336.708 112.938 336.25 113.312C333.708 115.271 330.438 117.479 326.438 119.938C322.479 122.396 318.438 124.146 314.312 125.188C310.229 126.188 306.729 125.5 303.812 123.125C302.729 122 302 120.208 301.625 117.75C301.292 115.25 301.292 112.833 301.625 110.5C297.667 113.5 293.854 116.938 290.188 120.812C286.562 124.646 283.708 128.562 281.625 132.562C281.083 133.188 280.438 133.479 279.688 133.438C278.938 133.396 278.312 133.104 277.812 132.562C277.312 131.979 277.146 131.271 277.312 130.438C278.062 127.062 279 123.708 280.125 120.375C280.542 119.042 280.938 117.708 281.312 116.375C281.312 116.375 281.312 116.354 281.312 116.312C281.771 114.854 282.167 113.375 282.5 111.875C282.792 110.833 283.375 110.229 284.25 110.062C285.125 109.854 285.917 110.021 286.625 110.562C287.333 111.062 287.583 111.854 287.375 112.938C286.667 115.938 285.833 118.938 284.875 121.938C284.625 122.646 284.396 123.333 284.188 124C287.021 121.375 289.792 118.667 292.5 115.875C296.167 112.042 299.979 108.417 303.938 105C304.438 104.583 304.896 104.521 305.312 104.812C305.771 105.104 306.146 105.583 306.438 106.25C306.896 107.375 307 108.562 306.75 109.812C306.542 111.062 306.208 112.312 305.75 113.562C305.25 114.979 304.875 116.396 304.625 117.812C304.417 119.188 304.667 120.521 305.375 121.812C307.208 123.521 309.354 124.292 311.812 124.125C314.312 123.958 316.812 123.333 319.312 122.25C321.854 121.167 324.062 120.083 325.938 119C326.229 118.833 326.542 118.646 326.875 118.438C330.458 116.479 333.625 114.062 336.375 111.188ZM476.5 8.1875C477.375 13.8958 477.542 19.6042 477 25.3125C476.458 31.0208 475.688 36.6875 474.688 42.3125C474.271 44.6875 473.896 47.0625 473.562 49.4375C468.146 80.0208 460.875 110.146 451.75 139.812C448.833 149.104 445.604 158.292 442.062 167.375C438.521 176.458 434.25 185.188 429.25 193.562C427.667 196.104 425.917 198.562 424 200.938C422.083 203.312 419.875 205.375 417.375 207.125C414.208 209.25 411 210.042 407.75 209.5C404.5 208.958 401.792 207.083 399.625 203.875C396.333 198.25 394.188 190.708 393.188 181.25C392.188 171.833 392.042 161.458 392.75 150.125C393.458 138.792 394.688 127.479 396.438 116.188C398.229 104.854 400.229 94.4792 402.438 85.0625C393.479 97.4792 383.25 108.75 371.75 118.875C371.208 119.292 370.604 119.792 369.938 120.375C369.229 121 368.583 121.542 368 122C364.917 124.542 362.229 125.75 359.938 125.625C357.688 125.5 356.104 124.333 355.188 122.125C354.312 119.917 354.417 116.958 355.5 113.25C359.458 97.2083 365.75 82.125 374.375 68C377.375 63.0833 380.604 58.3125 384.062 53.6875C384.979 52.6042 385.979 52.1875 387.062 52.4375C388.188 52.6875 389 53.3125 389.5 54.3125C390 55.3125 389.812 56.3958 388.938 57.5625C382.229 65.4792 376.438 74 371.562 83.125C366.646 92.2917 362.792 101.875 360 111.875C360 112 359.979 112.146 359.938 112.312C359.479 113.812 359.083 115.479 358.75 117.312C358.458 119.104 358.625 120.417 359.25 121.25C359.875 122.083 361.375 121.771 363.75 120.312C382.833 105.312 397.604 86.8542 408.062 64.9375C408.729 63.7708 409.583 63.1667 410.625 63.125C411.708 63.0833 412.604 63.4583 413.312 64.25C414.021 65.0417 414.188 66.0833 413.812 67.375C409.812 79.0417 406.292 92.2292 403.25 106.938C400.208 121.604 398.188 136.354 397.188 151.188C396.229 166.021 396.812 179.479 398.938 191.562C399.812 195.729 401.167 199.146 403 201.812C404.833 204.479 407.104 205.854 409.812 205.938C412.562 206.021 415.75 204.229 419.375 200.562C423.208 196.354 426.479 191.708 429.188 186.625C431.896 181.583 434.375 176.458 436.625 171.25C445.333 149.833 452.5 127.896 458.125 105.438C463.75 82.9792 468.021 60.2917 470.938 37.375C471.021 36.5417 471.104 35.7083 471.188 34.875C471.771 29.75 472.042 24.6042 472 19.4375C472 14.2292 471.021 9.22917 469.062 4.4375C468.562 3.1875 468.667 2.14583 469.375 1.3125C470.083 0.479167 470.979 0.0625 472.062 0.0625C473.188 0.0208333 474.083 0.625 474.75 1.875C475.542 3.95833 476.125 6.0625 476.5 8.1875ZM633.938 34.625C634.104 36.2917 633.646 37.4375 632.562 38.0625C631.479 38.6458 630.375 38.6875 629.25 38.1875C628.125 37.6458 627.583 36.5417 627.625 34.875C627.708 33.2083 627 32.0417 625.5 31.375C624.042 30.6667 622.583 30.2083 621.125 30C617.792 29.5833 614.438 29.5833 611.062 30C607.729 30.4167 604.417 30.9583 601.125 31.625C595.75 32.7083 590.438 34.0208 585.188 35.5625C564.021 41.6875 545.146 52.1042 528.562 66.8125C511.979 81.4792 499.438 98.9792 490.938 119.312C489.896 122.062 489.125 124.896 488.625 127.812C488.125 130.729 488.042 133.667 488.375 136.625C489 141.458 490.792 145.333 493.75 148.25C496.75 151.208 500.708 152.75 505.625 152.875C510.792 152.792 515.792 151.792 520.625 149.875C525.583 148 530.458 145.771 535.25 143.188C536.042 142.771 536.833 142.688 537.625 142.938C538.417 143.188 539.042 143.708 539.5 144.5C539.875 145.25 539.938 146.021 539.688 146.812C539.479 147.604 539 148.208 538.25 148.625C538.25 148.667 538.25 148.688 538.25 148.688C538.25 148.688 538.229 148.688 538.188 148.688C537.979 148.812 537.771 148.917 537.562 149C534.396 150.75 530.542 153.438 526 157.062C521.5 160.688 517.125 164.792 512.875 169.375C508.667 174 505.396 178.583 503.062 183.125C500.771 187.708 500.25 191.792 501.5 195.375C502.75 197.958 504.729 199.583 507.438 200.25C510.188 200.917 512.917 201.104 515.625 200.812C522.458 199.938 529.062 198.104 535.438 195.312C541.812 192.562 547.938 189.396 553.812 185.812C557.354 183.604 561.021 181.042 564.812 178.125C568.604 175.208 572.021 172 575.062 168.5C578.146 165 580.396 161.208 581.812 157.125C582.271 155.833 583.042 155.104 584.125 154.938C585.25 154.771 586.229 155.042 587.062 155.75C587.896 156.458 588.167 157.5 587.875 158.875C586.083 162.208 583.896 165.188 581.312 167.812C578.729 170.438 576.021 172.938 573.188 175.312C572.979 175.479 572.771 175.646 572.562 175.812C568.938 178.938 564.292 182.354 558.625 186.062C553 189.812 546.917 193.271 540.375 196.438C533.833 199.604 527.438 201.875 521.188 203.25C514.979 204.667 509.5 204.583 504.75 203C501.75 201.833 499.542 199.792 498.125 196.875C496.583 193.208 496.604 189.104 498.188 184.562C499.812 180.021 502.396 175.417 505.938 170.75C509.479 166.083 513.375 161.688 517.625 157.562C514.042 158.562 510.458 159.104 506.875 159.188C503.292 159.271 499.75 158.646 496.25 157.312C492.458 155.729 489.375 153.292 487 150C484.667 146.708 483.188 143.083 482.562 139.125C481.729 133.917 481.979 128.812 483.312 123.812C484.646 118.771 486.5 113.958 488.875 109.375C498.667 90.4167 511.854 74.2292 528.438 60.8125C545.062 47.3958 563.646 37.8333 584.188 32.125C590.104 30.4583 596.062 29.0417 602.062 27.875C608.104 26.6667 614.229 26.0625 620.438 26.0625C623.438 26.0208 626.25 26.625 628.875 27.875C631.542 29.0833 633.229 31.3333 633.938 34.625ZM712.375 145.562C719.75 150.062 724.271 154.729 725.938 159.562C727.646 164.396 726.854 169 723.562 173.375C720.312 177.75 714.958 181.5 707.5 184.625C696.208 188.75 683.229 191.625 668.562 193.25C653.938 194.917 639.083 195.146 624 193.938C623.375 196.438 622.75 198.958 622.125 201.5C621.75 203 621.396 204.521 621.062 206.062C619.938 211.229 618.438 216.312 616.562 221.312C616.396 221.729 616.104 222.021 615.688 222.188C615.312 222.354 614.917 222.354 614.5 222.188C613.833 221.896 613.5 221.396 613.5 220.688C613.458 220.562 613.438 220.417 613.438 220.25C611.938 210.917 610.583 201.562 609.375 192.188C592.542 189.604 578.104 184.771 566.062 177.688C565.479 177.312 565.125 176.812 565 176.188C564.875 175.562 564.979 174.958 565.312 174.375C565.688 173.792 566.208 173.438 566.875 173.312C567.542 173.188 568.167 173.312 568.75 173.688C572.958 176.646 577.479 179.146 582.312 181.188C590.438 184.438 599.333 186.958 609 188.75C608.458 184.083 608.021 179.417 607.688 174.75C606.396 159.167 607.042 143.667 609.625 128.25C612.25 112.792 617.5 98.2292 625.375 84.5625C631.375 74.1042 638.896 64.6667 647.938 56.25C657.021 47.7917 667.354 41.7292 678.938 38.0625C681.688 31.7708 684.417 25.5 687.125 19.25C687.792 18.0417 688.667 17.4375 689.75 17.4375C690.833 17.3958 691.729 17.7917 692.438 18.625C693.146 19.4583 693.229 20.5417 692.688 21.875C690.188 26.7083 687.729 31.5833 685.312 36.5C686.438 36.25 687.562 36.0417 688.688 35.875C693.812 35.2083 698.958 35.5208 704.125 36.8125C709.292 38.1042 713.562 40.8542 716.938 45.0625C719.479 48.4792 721.042 52.2708 721.625 56.4375C722.208 60.6042 722.25 64.75 721.75 68.875C720.375 78.2083 716.479 86.7708 710.062 94.5625C703.688 102.354 696.062 109.292 687.188 115.375C678.354 121.458 669.542 126.625 660.75 130.875C662.542 130.917 664.333 131.021 666.125 131.188C674.25 132.062 682.208 133.646 690 135.938C697.833 138.271 705.292 141.479 712.375 145.562ZM628.375 86.25C622.167 96.7083 617.688 107.625 614.938 119C612.188 130.375 610.708 141.979 610.5 153.812C610.292 165.646 610.875 177.5 612.25 189.375C614.833 189.792 617.417 190.146 620 190.438C626.125 169.562 633.146 149 641.062 128.75C648.979 108.458 657.208 88.3125 665.75 68.3125C669.417 59.8125 673.125 51.3125 676.875 42.8125C666.417 46.6042 657.104 52.4167 648.938 60.25C640.771 68.0833 633.917 76.75 628.375 86.25ZM617.312 200.312C617.896 198.021 618.521 195.75 619.188 193.5C616.979 193.25 614.812 192.979 612.688 192.688C613.354 198.354 614.146 203.958 615.062 209.5C615.646 206.792 616.292 204.062 617 201.312C617.083 200.979 617.188 200.646 617.312 200.312ZM720.562 165.062C720.729 163.062 720.229 161.229 719.062 159.562C717.938 157.896 716.646 156.396 715.188 155.062C710.562 151.021 704.625 147.271 697.375 143.812C690.167 140.354 682.688 137.688 674.938 135.812C667.229 133.979 660.312 133.438 654.188 134.188C653.729 134.312 653.271 134.438 652.812 134.562C652.229 134.812 651.667 135.062 651.125 135.312L651.062 135.25C650.938 135.333 650.792 135.417 650.625 135.5C649.958 135.625 649.354 135.521 648.812 135.188C648.271 134.854 647.917 134.375 647.75 133.75C647.583 133.125 647.625 132.562 647.875 132.062C648.167 131.562 648.583 131.188 649.125 130.938C656 127.646 662.708 124.042 669.25 120.125C675.583 116.375 682.167 111.938 689 106.812C695.875 101.646 701.875 95.8542 707 89.4375C712.167 82.9792 715.396 75.9167 716.688 68.25C718.104 58.1667 716.396 50.6875 711.562 45.8125C706.729 40.9375 699.25 38.9583 689.125 39.875C687.042 40.1667 685 40.5417 683 41C671 65.0833 660 89.6042 650 114.562C640 139.479 631.583 164.958 624.75 191C639 192.333 653.146 192.083 667.188 190.25C681.271 188.458 693.979 184.979 705.312 179.812C708.562 178.229 711.688 176.271 714.688 173.938C717.729 171.604 719.688 168.646 720.562 165.062Z" fill="white"/>
</svg>
